<svg width="20" height="20" viewBox="0 0 20 20" fill="none" xmlns="http://www.w3.org/2000/svg">
<path d="M0.00142806 0.714082C0.00142806 0.524695 0.0766616 0.343066 0.210578 0.209149C0.344494 0.0752332 0.526123 0 0.71551 0H1.34105C2.37932 0 2.97629 0.675521 3.32191 1.34961C3.55755 1.81091 3.72751 2.37361 3.86889 2.86204H18.5718C18.7925 2.8621 19.0102 2.91331 19.2077 3.01163C19.4053 3.10995 19.5774 3.25272 19.7105 3.42873C19.8436 3.60473 19.9341 3.80919 19.9749 4.02606C20.0157 4.24293 20.0058 4.46631 19.9457 4.67866L17.8092 12.2122C17.6392 12.8099 17.279 13.3359 16.7831 13.7104C16.2873 14.0849 15.6828 14.2874 15.0614 14.2873H7.80777C7.1812 14.2876 6.57194 14.0817 6.07386 13.7016C5.57578 13.3215 5.21651 12.7881 5.05141 12.1837L4.13453 8.82034C4.12927 8.80526 4.12451 8.79002 4.12025 8.77464L2.64781 3.78035L2.505 3.29906C2.36218 2.80491 2.2365 2.36789 2.04799 2.00086C1.82091 1.55813 1.6124 1.42959 1.33962 1.42959H0.714082C0.524695 1.42959 0.343066 1.35436 0.209149 1.22044C0.0752332 1.08653 0 0.904896 0 0.71551L0.00142806 0.714082Z" fill="#0182C9"/>
<path d="M7.86063 20.0001C8.42879 20.0001 8.97368 19.7744 9.37542 19.3726C9.77717 18.9709 10.0029 18.426 10.0029 17.8578C10.0029 17.2897 9.77717 16.7448 9.37542 16.343C8.97368 15.9413 8.42879 15.7156 7.86063 15.7156C7.29247 15.7156 6.74758 15.9413 6.34583 16.343C5.94408 16.7448 5.71838 17.2897 5.71838 17.8578C5.71838 18.426 5.94408 18.9709 6.34583 19.3726C6.74758 19.7744 7.29247 20.0001 7.86063 20.0001Z" fill="#0182C9"/>
<path d="M15.0014 20.0001C15.5695 20.0001 16.1144 19.7744 16.5162 19.3726C16.9179 18.9709 17.1436 18.426 17.1436 17.8578C17.1436 17.2897 16.9179 16.7448 16.5162 16.343C16.1144 15.9413 15.5695 15.7156 15.0014 15.7156C14.4332 15.7156 13.8883 15.9413 13.4866 16.343C13.0848 16.7448 12.8591 17.2897 12.8591 17.8578C12.8591 18.426 13.0848 18.9709 13.4866 19.3726C13.8883 19.7744 14.4332 20.0001 15.0014 20.0001Z" fill="#0182C9"/>
</svg>
