<svg width="189" height="109" viewBox="0 0 189 109" fill="none" xmlns="http://www.w3.org/2000/svg">
<path d="M92.8799 59.0102C90.0995 59.1582 87.5152 59.7022 85.0029 60.6661C80.6744 62.322 76.7899 65.2618 73.9856 69.0056C71.1653 72.7693 69.5131 77.0971 69.069 81.8648C68.977 82.8887 68.977 85.1205 69.069 86.1445C69.293 88.5563 69.8131 90.8002 70.6572 93C72.3134 97.3278 75.2538 101.212 78.9982 104.015C82.7627 106.835 87.0912 108.487 91.8597 108.931C92.8839 109.023 95.1161 109.023 96.1403 108.931C100.909 108.487 105.237 106.835 109.002 104.015C112.746 101.212 115.687 97.3278 117.343 93C118.187 90.8002 118.707 88.5563 118.931 86.1445C119.023 85.1205 119.023 82.8887 118.931 81.8648C118.303 75.0932 115.151 69.0736 109.982 64.7699C106.069 61.5141 101.281 59.5422 96.1803 59.0862C95.5082 59.0262 93.4639 58.9782 92.8799 59.0102ZM95.0001 60.3861C95.9162 60.4301 96.7603 60.5061 97.4404 60.6101C98.0325 60.6981 99.3446 60.9541 99.3206 60.9781C99.3126 60.9901 97.7404 61.1021 95.8322 61.2301L92.3598 61.4621L87.2312 62.67C82.2266 63.8499 82.0986 63.8779 82.0186 63.8059C81.9746 63.7659 81.9386 63.7179 81.9386 63.7019C81.9386 63.5819 84.1388 62.482 85.259 62.038C87.7352 61.0581 90.2716 60.5101 92.8759 60.3901C93.888 60.3421 94.04 60.3421 95.0001 60.3861ZM102.581 61.966C103.281 62.222 104.901 62.994 105.681 63.4459C107.21 64.3259 108.69 65.4018 109.882 66.4937C110.546 67.1057 110.658 67.2257 110.558 67.2257C110.518 67.2257 109.902 67.1737 109.19 67.1097C108.258 67.0257 107.878 66.9777 107.83 66.9337C106.658 65.9258 101.897 61.794 101.841 61.738C101.773 61.6741 101.817 61.6821 102.101 61.786C102.289 61.858 102.505 61.938 102.581 61.966ZM92.4878 64.6699L92.7759 67.1497L92.6478 67.2617C90.5476 69.0856 85.987 72.9493 85.923 72.9653C85.783 72.9933 77.53 73.8333 77.518 73.8173C77.514 73.8093 77.37 72.9733 77.198 71.9534C76.938 70.3775 76.8979 70.0935 76.946 70.0335C77.006 69.9575 81.6105 65.0658 81.9186 64.7539L82.1266 64.5419L87.0832 63.3659C89.8075 62.722 92.0758 62.19 92.1198 62.19C92.1998 62.186 92.2158 62.29 92.4878 64.6699ZM109.522 67.7897L111.362 67.9496L111.514 68.1176C112.79 69.5415 113.978 71.2174 114.799 72.7533L115.023 73.1773L115.283 77.389C115.423 79.7089 115.547 81.7048 115.559 81.8288L115.579 82.0567L114.174 83.3607C112.938 84.5126 112.762 84.6606 112.706 84.6126C112.67 84.5806 111.21 83.4167 109.462 82.0247C107.714 80.6328 106.241 79.4529 106.189 79.4049C106.113 79.3329 105.881 78.541 104.901 75.0052C103.801 71.0335 103.709 70.6855 103.773 70.6415C103.809 70.6135 104.697 69.9255 105.741 69.1096C106.786 68.2976 107.65 67.6297 107.662 67.6297C107.674 67.6257 108.51 67.6977 109.522 67.7897ZM98.2205 69.2856C100.829 70.1095 102.985 70.8015 103.017 70.8175C103.077 70.8535 105.465 79.3769 105.433 79.4369C105.421 79.4529 103.997 80.8208 102.269 82.4727C100.537 84.1246 98.9926 85.6005 98.8366 85.7525L98.5525 86.0285L93.904 84.3326C91.3437 83.3967 89.2474 82.6247 89.2434 82.6167C89.2354 82.6127 88.6234 80.5288 87.8793 77.993C86.5551 73.4733 86.5311 73.3773 86.6031 73.3013C86.6471 73.2613 88.1393 71.9774 89.9195 70.4535L93.1599 67.6777L93.3199 67.7297C93.4079 67.7577 95.6122 68.4576 98.2205 69.2856ZM75.9258 69.7455L76.2459 70.1255L76.5779 72.1454L76.9139 74.1692L75.5378 79.0249L74.1576 83.8846L72.8055 85.2685C71.2813 86.8244 71.5053 86.6644 70.7892 86.7284C70.5012 86.7564 70.4972 86.7564 70.4972 86.6604C70.4972 86.6084 70.4772 86.4005 70.4572 86.2045C70.3212 84.9166 70.3292 82.9967 70.4812 81.5448C70.9212 77.289 72.4974 73.2773 75.0777 69.8295C75.4258 69.3656 75.5178 69.2656 75.5538 69.3096C75.5818 69.3416 75.7458 69.5375 75.9258 69.7455ZM116.823 83.8166L117.635 84.7526L117.607 85.3165C117.423 89.2163 116.155 93.18 113.998 96.6158C113.434 97.5117 112.17 99.2236 112.07 99.2236C112.054 99.2236 111.714 99.2796 111.31 99.3476C110.91 99.4196 110.574 99.4676 110.566 99.4596C110.554 99.4516 110.394 98.4157 110.21 97.1638L109.87 94.8839L111.466 90.0802L113.066 85.2765L114.45 83.9886L115.839 82.7007L115.923 82.7927C115.971 82.8447 116.375 83.3047 116.823 83.8166ZM93.58 84.9006C96.1203 85.8325 98.2045 86.5964 98.2085 86.6004C98.2125 86.6044 98.6206 88.7123 99.1126 91.2841C99.7527 94.6399 99.9967 95.9798 99.9647 96.0158C99.9447 96.0478 98.5365 97.2518 96.8443 98.6957C95.1481 100.14 93.648 101.415 93.5159 101.531L93.2719 101.743L88.5633 100.288C85.971 99.4876 83.8428 98.8237 83.8308 98.8117C83.8228 98.7997 83.1547 96.7518 82.3506 94.26C81.4305 91.4081 80.9024 89.7082 80.9264 89.6763C80.9424 89.6483 82.7226 88.1763 84.8789 86.4005C87.7593 84.0366 88.8194 83.1847 88.8794 83.1967C88.9234 83.2047 91.0396 83.9726 93.58 84.9006ZM77.382 87.3364L80.3184 90.0722L81.7465 94.4959C82.5346 96.9318 83.1747 98.9437 83.1667 98.9717C83.1627 98.9997 82.5106 99.6236 81.7185 100.364C80.6824 101.328 80.2624 101.695 80.2103 101.679C80.1743 101.667 79.3062 101.248 78.2821 100.744L76.4219 99.8276L76.0378 99.3756C74.3456 97.3998 73.0015 95.1719 72.0334 92.7601L71.7693 92.0961L71.9334 89.5683C72.0254 88.1803 72.1094 87.0044 72.1174 86.9604C72.1374 86.8684 74.3696 84.5726 74.4177 84.5926C74.4337 84.6006 75.7698 85.8365 77.382 87.3364ZM109.282 95.3119C109.366 95.6959 109.942 99.8516 109.918 99.8916C109.898 99.9196 108.394 101.252 106.574 102.855L103.261 105.771L102.593 106.031C101.313 106.531 99.6527 107.011 98.4605 107.223L97.9605 107.311L96.7803 106.767C96.1323 106.463 95.5802 106.195 95.5522 106.171C95.5282 106.143 95.1201 105.231 94.6441 104.143C93.836 102.287 93.788 102.159 93.852 102.099C93.924 102.031 100.353 96.5638 100.473 96.4678C100.517 96.4358 102.077 96.2038 104.869 95.8239C107.254 95.4999 109.214 95.2319 109.23 95.2279C109.246 95.2279 109.27 95.2639 109.282 95.3119ZM79.1382 101.883L80.1183 102.375L80.5984 103.063C80.8624 103.443 81.0865 103.771 81.0945 103.795C81.1145 103.847 80.4744 103.407 79.7983 102.903C79.2822 102.515 78.4821 101.855 78.0581 101.467L77.8381 101.264L77.9981 101.328C78.0821 101.363 78.5982 101.611 79.1382 101.883ZM95.9842 107.107C96.3683 107.283 96.6963 107.443 96.7123 107.459C96.7563 107.503 95.9842 107.575 94.9401 107.623C94.296 107.655 93.748 107.655 93.0199 107.623C92.0798 107.579 91.9358 107.567 91.9838 107.527C92.0118 107.507 95.1121 106.791 95.2041 106.787C95.2482 106.783 95.6002 106.927 95.9842 107.107Z" fill="url(#paint0_linear_219:26)"/>
<path d="M37.3279 73.0061C35.6597 73.0949 34.1091 73.4213 32.6018 73.9997C30.0046 74.9932 27.674 76.7571 25.9914 79.0033C24.2992 81.2616 23.3078 83.8582 23.0414 86.7189C22.9862 87.3332 22.9862 88.6723 23.0414 89.2867C23.1758 90.7338 23.4879 92.0801 23.9943 93.4C24.988 95.9967 26.7523 98.3269 28.9989 100.009C31.2576 101.701 33.8547 102.692 36.7158 102.959C37.3303 103.014 38.6697 103.014 39.2842 102.959C42.1453 102.692 44.7424 101.701 47.0011 100.009C49.2478 98.3269 51.012 95.9967 52.0057 93.4C52.5121 92.0801 52.8242 90.7338 52.9586 89.2867C53.0138 88.6723 53.0138 87.3332 52.9586 86.7189C52.5818 82.6559 50.6903 79.0441 47.5892 76.4619C45.2417 74.5084 42.3685 73.3253 39.3082 73.0517C38.9049 73.0157 37.6784 72.9869 37.3279 73.0061ZM38.6001 73.8317C39.1497 73.8581 39.6562 73.9037 40.0642 73.9661C40.4195 74.0189 41.2068 74.1725 41.1924 74.1869C41.1876 74.1941 40.2443 74.2613 39.0993 74.3381L37.0159 74.4772L33.9387 75.202C30.936 75.9099 30.8591 75.9267 30.8111 75.8836C30.7847 75.8596 30.7631 75.8308 30.7631 75.8212C30.7631 75.7492 32.0833 75.0892 32.7554 74.8228C34.2411 74.2349 35.7629 73.9061 37.3255 73.8341C37.9328 73.8053 38.024 73.8053 38.6001 73.8317ZM43.1486 74.7796C43.5687 74.9332 44.5408 75.3964 45.0088 75.6676C45.9258 76.1955 46.8139 76.8411 47.5291 77.4962C47.9276 77.8634 47.9948 77.9354 47.9348 77.9354C47.9108 77.9354 47.5411 77.9042 47.1139 77.8658C46.5546 77.8154 46.3266 77.7866 46.2978 77.7602C45.5945 77.1555 42.7382 74.6764 42.7046 74.6428C42.6638 74.6044 42.6902 74.6092 42.8606 74.6716C42.9734 74.7148 43.103 74.7628 43.1486 74.7796ZM37.0927 76.4019L37.2655 77.8898L37.1887 77.957C35.9286 79.0513 33.1922 81.3696 33.1538 81.3792C33.0698 81.396 28.118 81.9 28.1108 81.8904C28.1084 81.8856 28.022 81.384 27.9188 80.772C27.7628 79.8265 27.7388 79.6561 27.7676 79.6201C27.8036 79.5745 30.5663 76.6395 30.7511 76.4523L30.8759 76.3251L33.8499 75.6196C35.4845 75.2332 36.8455 74.914 36.8719 74.914C36.9199 74.9116 36.9295 74.974 37.0927 76.4019ZM47.3131 78.2738L48.4173 78.3698L48.5085 78.4706C49.2742 79.3249 49.987 80.3305 50.4791 81.252L50.6135 81.5064L50.7695 84.0334C50.8535 85.4253 50.928 86.6229 50.9352 86.6973L50.9472 86.834L50.1047 87.6164C49.363 88.3075 49.2574 88.3963 49.2237 88.3675C49.2021 88.3483 48.326 87.65 47.2771 86.8148C46.2282 85.9797 45.3449 85.2717 45.3137 85.2429C45.2681 85.1997 45.1289 84.7246 44.5408 82.6031C43.8807 80.2201 43.8255 80.0113 43.8639 79.9849C43.8855 79.9681 44.4184 79.5553 45.0448 79.0657C45.6713 78.5786 46.1898 78.1778 46.197 78.1778C46.2042 78.1754 46.7058 78.2186 47.3131 78.2738ZM40.5323 79.1713C42.0973 79.6657 43.391 80.0809 43.4102 80.0905C43.4463 80.1121 44.8792 85.2261 44.86 85.2621C44.8528 85.2717 43.9983 86.0925 42.9614 87.0836C41.9221 88.0748 40.9956 88.9603 40.9019 89.0515L40.7315 89.2171L37.9424 88.1996C36.4062 87.638 35.1485 87.1748 35.1461 87.17C35.1413 87.1676 34.774 85.9173 34.3276 84.3958C33.5331 81.684 33.5187 81.6264 33.5619 81.5808C33.5883 81.5568 34.4836 80.7864 35.5517 79.8721L37.4959 78.2066L37.592 78.2378C37.6448 78.2546 38.9673 78.6746 40.5323 79.1713ZM27.1555 79.4473L27.3475 79.6753L27.5467 80.8872L27.7484 82.1015L26.9227 85.015L26.0946 87.9308L25.2833 88.7611C24.3688 89.6947 24.5032 89.5987 24.0735 89.6371C23.9007 89.6539 23.8983 89.6539 23.8983 89.5963C23.8983 89.5651 23.8863 89.4403 23.8743 89.3227C23.7927 88.5499 23.7975 87.398 23.8887 86.5269C24.1527 83.9734 25.0985 81.5664 26.6466 79.4977C26.8555 79.2193 26.9107 79.1593 26.9323 79.1857C26.9491 79.2049 27.0475 79.3225 27.1555 79.4473ZM51.6936 87.89L52.1809 88.4515L52.1641 88.7899C52.0537 91.1298 51.2928 93.508 49.999 95.5695C49.6606 96.107 48.9021 97.1342 48.8421 97.1342C48.8325 97.1342 48.6285 97.1678 48.386 97.2086C48.146 97.2518 47.9444 97.2806 47.9396 97.2758C47.9324 97.271 47.8364 96.6494 47.726 95.8983L47.5219 94.5303L48.4797 91.6481L49.4398 88.7659L50.2703 87.9932L51.1032 87.2204L51.1536 87.2756C51.1824 87.3068 51.4248 87.5828 51.6936 87.89ZM37.748 88.5403C39.2722 89.0995 40.5227 89.5579 40.5251 89.5603C40.5275 89.5627 40.7723 90.8274 41.0676 92.3705C41.4516 94.384 41.598 95.1879 41.5788 95.2095C41.5668 95.2287 40.7219 95.9511 39.7066 96.8174C38.6889 97.6837 37.7888 98.4493 37.7096 98.5189L37.5631 98.6461L34.738 97.7725C33.1826 97.2926 31.9057 96.8942 31.8985 96.887C31.8937 96.8798 31.4928 95.6511 31.0104 94.156C30.4583 92.4449 30.1415 91.4249 30.1559 91.4057C30.1655 91.3889 31.2336 90.5058 32.5273 89.4403C34.2556 88.022 34.8916 87.5108 34.9276 87.518C34.954 87.5228 36.2238 87.9836 37.748 88.5403ZM28.0292 90.0018L29.791 91.6433L30.6479 94.2976C31.1208 95.7591 31.5048 96.9662 31.5 96.983C31.4976 96.9998 31.1064 97.3742 30.6311 97.8181C30.0094 98.3965 29.7574 98.6173 29.7262 98.6077C29.7046 98.6005 29.1837 98.3485 28.5693 98.0461L27.4531 97.4966L27.2227 97.2254C26.2074 96.0398 25.4009 94.7031 24.82 93.256L24.6616 92.8577L24.76 91.341C24.8152 90.5082 24.8656 89.8027 24.8704 89.7763C24.8824 89.7211 26.2218 88.3435 26.2506 88.3555C26.2602 88.3603 27.0619 89.1019 28.0292 90.0018ZM47.1691 94.7871C47.2195 95.0175 47.5651 97.511 47.5507 97.535C47.5387 97.5518 46.6362 98.3509 45.5441 99.3132L43.5567 101.063L43.1558 101.219C42.3877 101.519 41.3916 101.807 40.6763 101.934L40.3763 101.987L39.6682 101.66C39.2794 101.478 38.9481 101.317 38.9313 101.303C38.9169 101.286 38.6721 100.739 38.3864 100.086C37.9016 98.9725 37.8728 98.8957 37.9112 98.8597C37.9544 98.8189 41.8117 95.5383 41.8837 95.4807C41.9101 95.4615 42.8462 95.3223 44.5216 95.0943C45.9522 94.8999 47.1283 94.7391 47.1379 94.7367C47.1475 94.7367 47.1619 94.7583 47.1691 94.7871ZM29.0829 98.7301L29.671 99.0253L29.959 99.438C30.1175 99.666 30.2519 99.8628 30.2567 99.8772C30.2687 99.9084 29.8846 99.6444 29.479 99.342C29.1693 99.1093 28.6893 98.7133 28.4349 98.4805L28.3028 98.3581L28.3988 98.3965C28.4493 98.4181 28.7589 98.5669 29.0829 98.7301ZM39.1905 101.864C39.421 101.97 39.6178 102.066 39.6274 102.075C39.6538 102.102 39.1905 102.145 38.5641 102.174C38.1776 102.193 37.8488 102.193 37.4119 102.174C36.8479 102.147 36.7615 102.14 36.7903 102.116C36.8071 102.104 38.6673 101.675 38.7225 101.672C38.7489 101.67 38.9601 101.756 39.1905 101.864Z" fill="url(#paint1_linear_219:26)"/>
<path d="M152.328 73.0061C150.66 73.0949 149.109 73.4213 147.602 73.9997C145.005 74.9932 142.674 76.7571 140.991 79.0033C139.299 81.2616 138.308 83.8582 138.041 86.7189C137.986 87.3332 137.986 88.6723 138.041 89.2867C138.176 90.7338 138.488 92.0801 138.994 93.4C139.988 95.9967 141.752 98.3269 143.999 100.009C146.258 101.701 148.855 102.692 151.716 102.959C152.33 103.014 153.67 103.014 154.284 102.959C157.145 102.692 159.742 101.701 162.001 100.009C164.248 98.3269 166.012 95.9967 167.006 93.4C167.512 92.0801 167.824 90.7338 167.959 89.2867C168.014 88.6723 168.014 87.3332 167.959 86.7189C167.582 82.6559 165.69 79.0441 162.589 76.4619C160.242 74.5084 157.369 73.3253 154.308 73.0517C153.905 73.0157 152.678 72.9869 152.328 73.0061ZM153.6 73.8317C154.15 73.8581 154.656 73.9037 155.064 73.9661C155.419 74.0189 156.207 74.1725 156.192 74.1869C156.188 74.1941 155.244 74.2613 154.099 74.3381L152.016 74.4772L148.939 75.202C145.936 75.9099 145.859 75.9267 145.811 75.8836C145.785 75.8596 145.763 75.8308 145.763 75.8212C145.763 75.7492 147.083 75.0892 147.755 74.8228C149.241 74.2349 150.763 73.9061 152.326 73.8341C152.933 73.8053 153.024 73.8053 153.6 73.8317ZM158.149 74.7796C158.569 74.9332 159.541 75.3964 160.009 75.6676C160.926 76.1955 161.814 76.8411 162.529 77.4962C162.928 77.8634 162.995 77.9354 162.935 77.9354C162.911 77.9354 162.541 77.9042 162.114 77.8658C161.555 77.8154 161.327 77.7866 161.298 77.7602C160.595 77.1555 157.738 74.6764 157.705 74.6428C157.664 74.6044 157.69 74.6092 157.861 74.6716C157.973 74.7148 158.103 74.7628 158.149 74.7796ZM152.093 76.4019L152.266 77.8898L152.189 77.957C150.929 79.0513 148.192 81.3696 148.154 81.3792C148.07 81.396 143.118 81.9 143.111 81.8904C143.108 81.8856 143.022 81.384 142.919 80.772C142.763 79.8265 142.739 79.6561 142.768 79.6201C142.804 79.5745 145.566 76.6395 145.751 76.4523L145.876 76.3251L148.85 75.6196C150.484 75.2332 151.845 74.914 151.872 74.914C151.92 74.9116 151.929 74.974 152.093 76.4019ZM162.313 78.2738L163.417 78.3698L163.508 78.4706C164.274 79.3249 164.987 80.3305 165.479 81.252L165.614 81.5064L165.77 84.0334C165.854 85.4253 165.928 86.6229 165.935 86.6973L165.947 86.834L165.105 87.6164C164.363 88.3075 164.257 88.3963 164.224 88.3675C164.202 88.3483 163.326 87.65 162.277 86.8148C161.228 85.9797 160.345 85.2717 160.314 85.2429C160.268 85.1997 160.129 84.7246 159.541 82.6031C158.881 80.2201 158.826 80.0113 158.864 79.9849C158.886 79.9681 159.418 79.5553 160.045 79.0657C160.671 78.5786 161.19 78.1778 161.197 78.1778C161.204 78.1754 161.706 78.2186 162.313 78.2738ZM155.532 79.1713C157.097 79.6657 158.391 80.0809 158.41 80.0905C158.446 80.1121 159.879 85.2261 159.86 85.2621C159.853 85.2717 158.998 86.0925 157.961 87.0836C156.922 88.0748 155.996 88.9603 155.902 89.0515L155.732 89.2171L152.942 88.1996C151.406 87.638 150.148 87.1748 150.146 87.17C150.141 87.1676 149.774 85.9173 149.328 84.3958C148.533 81.684 148.519 81.6264 148.562 81.5808C148.588 81.5568 149.484 80.7864 150.552 79.8721L152.496 78.2066L152.592 78.2378C152.645 78.2546 153.967 78.6746 155.532 79.1713ZM142.155 79.4473L142.348 79.6753L142.547 80.8872L142.748 82.1015L141.923 85.015L141.095 87.9308L140.283 88.7611C139.369 89.6947 139.503 89.5987 139.074 89.6371C138.901 89.6539 138.898 89.6539 138.898 89.5963C138.898 89.5651 138.886 89.4403 138.874 89.3227C138.793 88.5499 138.797 87.398 138.889 86.5269C139.153 83.9734 140.098 81.5664 141.647 79.4977C141.855 79.2193 141.911 79.1593 141.932 79.1857C141.949 79.2049 142.047 79.3225 142.155 79.4473ZM166.694 87.89L167.181 88.4515L167.164 88.7899C167.054 91.1298 166.293 93.508 164.999 95.5695C164.661 96.107 163.902 97.1342 163.842 97.1342C163.833 97.1342 163.628 97.1678 163.386 97.2086C163.146 97.2518 162.944 97.2806 162.94 97.2758C162.932 97.271 162.836 96.6494 162.726 95.8983L162.522 94.5303L163.48 91.6481L164.44 88.7659L165.27 87.9932L166.103 87.2204L166.154 87.2756C166.182 87.3068 166.425 87.5828 166.694 87.89ZM152.748 88.5403C154.272 89.0995 155.523 89.5579 155.525 89.5603C155.528 89.5627 155.772 90.8274 156.068 92.3705C156.452 94.384 156.598 95.1879 156.579 95.2095C156.567 95.2287 155.722 95.9511 154.707 96.8174C153.689 97.6837 152.789 98.4493 152.71 98.5189L152.563 98.6461L149.738 97.7725C148.183 97.2926 146.906 96.8942 146.898 96.887C146.894 96.8798 146.493 95.6511 146.01 94.156C145.458 92.4449 145.141 91.4249 145.156 91.4057C145.165 91.3889 146.234 90.5058 147.527 89.4403C149.256 88.022 149.892 87.5108 149.928 87.518C149.954 87.5228 151.224 87.9836 152.748 88.5403ZM143.029 90.0018L144.791 91.6433L145.648 94.2976C146.121 95.7591 146.505 96.9662 146.5 96.983C146.498 96.9998 146.106 97.3742 145.631 97.8181C145.009 98.3965 144.757 98.6173 144.726 98.6077C144.705 98.6005 144.184 98.3485 143.569 98.0461L142.453 97.4966L142.223 97.2254C141.207 96.0398 140.401 94.7031 139.82 93.256L139.662 92.8577L139.76 91.341C139.815 90.5082 139.866 89.8027 139.87 89.7763C139.882 89.7211 141.222 88.3435 141.251 88.3555C141.26 88.3603 142.062 89.1019 143.029 90.0018ZM162.169 94.7871C162.22 95.0175 162.565 97.511 162.551 97.535C162.539 97.5518 161.636 98.3509 160.544 99.3132L158.557 101.063L158.156 101.219C157.388 101.519 156.392 101.807 155.676 101.934L155.376 101.987L154.668 101.66C154.279 101.478 153.948 101.317 153.931 101.303C153.917 101.286 153.672 100.739 153.386 100.086C152.902 98.9725 152.873 98.8957 152.911 98.8597C152.954 98.8189 156.812 95.5383 156.884 95.4807C156.91 95.4615 157.846 95.3223 159.522 95.0943C160.952 94.8999 162.128 94.7391 162.138 94.7367C162.147 94.7367 162.162 94.7583 162.169 94.7871ZM144.083 98.7301L144.671 99.0253L144.959 99.438C145.117 99.666 145.252 99.8628 145.257 99.8772C145.269 99.9084 144.885 99.6444 144.479 99.342C144.169 99.1093 143.689 98.7133 143.435 98.4805L143.303 98.3581L143.399 98.3965C143.449 98.4181 143.759 98.5669 144.083 98.7301ZM154.191 101.864C154.421 101.97 154.618 102.066 154.627 102.075C154.654 102.102 154.191 102.145 153.564 102.174C153.178 102.193 152.849 102.193 152.412 102.174C151.848 102.147 151.761 102.14 151.79 102.116C151.807 102.104 153.667 101.675 153.722 101.672C153.749 101.67 153.96 101.756 154.191 101.864Z" fill="url(#paint2_linear_219:26)"/>
<mask id="path-4-inside-1_219:26" fill="white">
<path d="M91.7076 0.0549469C90.2277 0.475586 87.5741 1.55347 86.8852 2.05298C82.7006 5.05003 80.3022 9.09866 79.9195 13.8571C79.7919 15.3294 79.8684 15.7763 80.3532 16.8016C81.1697 18.5104 82.1903 19.1677 84.0785 19.2991C86.8852 19.4832 88.3906 18.0635 88.7988 14.8824C89.2326 11.2019 91.3249 9.09866 94.5143 9.09866C96.6321 9.09866 98.3416 10.0714 99.3623 11.9117C100.664 14.1463 100.434 16.7227 98.8009 18.5893C97.6017 19.9564 96.4025 20.5611 94.5143 20.7977C92.7282 21.008 91.2738 21.8493 90.636 23.0849C90.2532 23.7947 90.1512 24.82 90.0491 28.5269L89.9215 33.1276L87.4976 34.1003C86.1707 34.6261 84.7929 35.2045 84.4357 35.3623C84.0785 35.4937 83.2875 35.8092 82.6751 36.0458C82.0628 36.2561 81.4249 36.5453 81.2718 36.6768C81.1187 36.8082 80.5318 37.0448 79.9705 37.2288C79.4091 37.4129 78.6182 37.7021 78.1844 37.8861C75.3011 39.2006 73.7447 39.8578 73.5916 39.8578C73.5151 39.8578 72.8006 40.147 72.0352 40.5151C71.2697 40.8831 70.5553 41.1723 70.4532 41.1723C70.3511 41.1986 69.8153 41.4089 69.254 41.6981C68.6926 41.9873 68.1568 42.1976 68.0547 42.2239C67.9527 42.2239 67.2383 42.5131 66.4728 42.8812C65.7073 43.2492 64.9929 43.5384 64.8653 43.5384C64.7377 43.5384 64.2529 43.7487 63.7681 44.0379C63.2833 44.3008 62.4158 44.6689 61.8545 44.8529C61.2931 45.0369 60.7063 45.2735 60.5532 45.405C60.4001 45.5364 59.7622 45.8256 59.1498 46.036C58.5375 46.2463 57.6955 46.6143 57.2617 46.8246C56.8534 47.035 55.6287 47.5608 54.5826 48.0077C53.5364 48.4809 52.1841 49.0593 51.5973 49.3485C50.9849 49.6114 50.4491 49.848 50.347 49.848C50.2194 49.848 48.663 50.5578 46.5452 51.5568C46.1369 51.7409 44.9122 52.2929 43.8661 52.7662C42.8199 53.2131 41.4931 53.7915 40.9318 54.0544C40.3704 54.3173 39.0436 54.8956 37.9975 55.3689C35.9818 56.2627 33.9405 57.1829 32.2565 57.9978C31.6952 58.2607 30.547 58.7865 29.705 59.1809C28.8629 59.5752 27.1024 60.4165 25.8011 61.0475C24.4743 61.6784 23.3771 62.2042 23.3261 62.2042C22.9433 62.2042 10.5683 68.4875 6.99617 70.4855C3.85776 72.247 2.09719 74.1661 0.897963 77.1369C-2.0108 84.2877 2.50544 92.7268 9.29256 92.8057L11.0786 92.8319L11.1552 91.3597L11.2317 89.8875L10.2111 89.7297C5.66936 89.0988 3.21987 83.8408 5.41421 79.3715C6.20519 77.8204 7.35338 76.69 9.06292 75.9013C9.75184 75.5858 10.6704 75.1651 11.0786 74.9548C11.5124 74.7445 12.7116 74.2187 13.7578 73.7718C14.8039 73.3249 16.3093 72.6676 17.1003 72.2995C17.8913 71.9578 18.6312 71.6686 18.7588 71.6686C18.8864 71.6423 19.4477 71.432 20.0091 71.1428C20.5704 70.8536 21.1318 70.6433 21.2593 70.617C21.3869 70.617 22.1779 70.3015 23.0454 69.9335C26.0052 68.6453 26.8983 68.2509 29.3222 67.3308C30.649 66.805 32.1034 66.2266 32.5117 66.0426C32.9454 65.8322 33.7364 65.543 34.2977 65.359C34.8591 65.175 35.4459 64.9384 35.5735 64.8332C35.7266 64.7281 36.288 64.4915 36.8493 64.3074C37.4106 64.1234 37.9975 63.8868 38.1251 63.7816C38.2782 63.6765 39.0181 63.3873 39.7836 63.1244C40.549 62.8615 41.3145 62.5723 41.4421 62.4671C41.5952 62.362 42.1565 62.1254 42.7179 61.9413C43.2792 61.7573 44.0957 61.4681 44.5039 61.2578C44.9377 61.0738 46.3666 60.4954 47.6934 59.9696C49.0202 59.4438 50.8573 58.7077 51.7759 58.3659C52.6944 57.9978 53.664 57.6035 53.9447 57.4721C54.2253 57.3406 55.5522 56.8148 56.879 56.289C61.038 54.659 62.5944 54.0281 63.3854 53.66C63.8192 53.476 64.4315 53.2394 64.7888 53.1342C65.146 53.0291 65.7839 52.7925 66.1921 52.6084C66.6259 52.3981 68.1568 51.7671 69.6367 51.1625C71.1166 50.5841 72.5455 49.9794 72.8261 49.848C73.1068 49.7165 74.4336 49.1907 75.7604 48.6649C77.0872 48.1391 78.5416 47.5608 78.9499 47.3767C79.3836 47.1664 79.996 46.9298 80.3532 46.8246C80.7104 46.7195 81.3483 46.4829 81.7566 46.2989C82.1903 46.0885 84.1805 45.2735 86.2218 44.4586C88.263 43.6436 90.9166 42.5657 92.1159 42.0662C93.3406 41.5667 94.4123 41.1723 94.5143 41.1723C94.6929 41.1723 100.204 43.3544 101.148 43.8013C101.429 43.9328 102.756 44.4586 104.083 44.9844C105.409 45.5102 106.864 46.0885 107.272 46.2726C107.706 46.4829 108.318 46.7195 108.675 46.8246C109.033 46.9298 109.671 47.1664 110.079 47.3767C110.513 47.5608 111.941 48.1391 113.268 48.6649C114.595 49.1907 116.049 49.7691 116.458 49.9531C116.891 50.1372 117.631 50.4527 118.116 50.6367C118.601 50.8207 119.366 51.1099 119.775 51.2939C120.208 51.478 121.637 52.0826 122.964 52.6084C124.291 53.1342 125.745 53.7389 126.205 53.9492C126.638 54.1595 127.123 54.3173 127.276 54.3173C127.429 54.3173 128.042 54.5539 128.629 54.8431C129.241 55.1323 130.823 55.7895 132.15 56.289C133.476 56.8148 134.931 57.3932 135.339 57.5772C135.773 57.7875 136.385 58.0241 136.742 58.1293C137.1 58.2345 137.738 58.4711 138.146 58.6814C138.58 58.8654 140.008 59.4438 141.335 59.9696C142.662 60.4954 144.116 61.0738 144.525 61.2578C144.958 61.4681 145.749 61.7573 146.311 61.9413C146.872 62.1254 147.459 62.362 147.587 62.4671C147.74 62.5723 148.48 62.8615 149.245 63.1244C150.011 63.3873 150.776 63.6765 150.904 63.7816C151.057 63.8868 151.618 64.1234 152.179 64.3074C152.741 64.4915 153.328 64.7281 153.455 64.8332C153.608 64.9384 154.17 65.175 154.731 65.359C155.292 65.543 156.109 65.8322 156.517 66.0426C156.951 66.2266 158.38 66.805 159.706 67.3308C162.13 68.2509 163.023 68.6453 165.983 69.9335C166.851 70.3015 167.642 70.617 167.769 70.617C167.897 70.6433 168.458 70.8536 169.02 71.1428C169.581 71.432 170.142 71.6423 170.244 71.6686C170.372 71.6686 171.29 72.0366 172.286 72.4836C173.306 72.9042 174.812 73.5878 175.654 73.9558C178.052 75.0074 179.404 75.6121 180.374 76.0853C184.227 78.0045 185.63 83.2624 183.283 86.9167C182.415 88.2575 180.961 89.2302 179.175 89.6246L177.72 89.9663L177.797 91.2808C177.822 91.9907 177.924 92.6742 178.001 92.8057C178.307 93.3052 181.497 92.7794 183.232 91.9381C190.478 88.389 191.014 77.1369 184.176 71.9052C182.058 70.3015 174.123 66.174 162.386 60.6268C161.416 60.1799 160.038 59.5227 159.324 59.1809C157.793 58.4711 156.798 58.0241 152.434 56.0524C150.623 55.2111 148.658 54.3173 148.097 54.0544C147.536 53.7915 146.209 53.2131 145.163 52.7399C144.116 52.2929 142.917 51.7409 142.483 51.5568C140.366 50.5578 138.809 49.848 138.682 49.848C138.58 49.848 138.044 49.6114 137.431 49.3485C136.845 49.0593 135.492 48.4546 134.446 48.0077C133.4 47.5608 132.073 46.9561 131.486 46.6932C130.899 46.404 130.364 46.1674 130.262 46.1674C130.032 46.1674 126.945 44.8266 125.363 44.0642C124.776 43.775 124.24 43.5384 124.138 43.5384C124.036 43.5384 123.321 43.2492 122.556 42.8812C121.79 42.5131 121.076 42.2239 120.974 42.2239C120.872 42.1976 120.336 41.9873 119.775 41.6981C119.213 41.4089 118.677 41.1986 118.55 41.1723C118.448 41.1723 117.887 40.9357 117.274 40.6728C116.687 40.3836 115.641 39.9104 114.927 39.6475C111.533 38.2804 108.191 36.8871 107.247 36.4139C106.685 36.151 106.124 35.9143 106.022 35.9143C105.92 35.9143 105.46 35.7566 105.027 35.5463C104.567 35.336 103.062 34.705 101.659 34.1266L99.1071 33.1276L99.0306 31.261L98.954 29.3682L101.072 28.264C104.644 26.3711 107.119 23.3478 108.497 19.2203C109.288 16.9331 109.262 12.7793 108.446 10.3343C107.017 5.99646 103.7 2.42104 99.5919 0.791061C98.163 0.238976 97.2955 0.107521 95.0246 0.028656C93.4937 -0.0239258 91.9883 0.00236511 91.7076 0.0549469Z"/>
</mask>
<path d="M91.7076 0.0549469C90.2277 0.475586 87.5741 1.55347 86.8852 2.05298C82.7006 5.05003 80.3022 9.09866 79.9195 13.8571C79.7919 15.3294 79.8684 15.7763 80.3532 16.8016C81.1697 18.5104 82.1903 19.1677 84.0785 19.2991C86.8852 19.4832 88.3906 18.0635 88.7988 14.8824C89.2326 11.2019 91.3249 9.09866 94.5143 9.09866C96.6321 9.09866 98.3416 10.0714 99.3623 11.9117C100.664 14.1463 100.434 16.7227 98.8009 18.5893C97.6017 19.9564 96.4025 20.5611 94.5143 20.7977C92.7282 21.008 91.2738 21.8493 90.636 23.0849C90.2532 23.7947 90.1512 24.82 90.0491 28.5269L89.9215 33.1276L87.4976 34.1003C86.1707 34.6261 84.7929 35.2045 84.4357 35.3623C84.0785 35.4937 83.2875 35.8092 82.6751 36.0458C82.0628 36.2561 81.4249 36.5453 81.2718 36.6768C81.1187 36.8082 80.5318 37.0448 79.9705 37.2288C79.4091 37.4129 78.6182 37.7021 78.1844 37.8861C75.3011 39.2006 73.7447 39.8578 73.5916 39.8578C73.5151 39.8578 72.8006 40.147 72.0352 40.5151C71.2697 40.8831 70.5553 41.1723 70.4532 41.1723C70.3511 41.1986 69.8153 41.4089 69.254 41.6981C68.6926 41.9873 68.1568 42.1976 68.0547 42.2239C67.9527 42.2239 67.2383 42.5131 66.4728 42.8812C65.7073 43.2492 64.9929 43.5384 64.8653 43.5384C64.7377 43.5384 64.2529 43.7487 63.7681 44.0379C63.2833 44.3008 62.4158 44.6689 61.8545 44.8529C61.2931 45.0369 60.7063 45.2735 60.5532 45.405C60.4001 45.5364 59.7622 45.8256 59.1498 46.036C58.5375 46.2463 57.6955 46.6143 57.2617 46.8246C56.8534 47.035 55.6287 47.5608 54.5826 48.0077C53.5364 48.4809 52.1841 49.0593 51.5973 49.3485C50.9849 49.6114 50.4491 49.848 50.347 49.848C50.2194 49.848 48.663 50.5578 46.5452 51.5568C46.1369 51.7409 44.9122 52.2929 43.8661 52.7662C42.8199 53.2131 41.4931 53.7915 40.9318 54.0544C40.3704 54.3173 39.0436 54.8956 37.9975 55.3689C35.9818 56.2627 33.9405 57.1829 32.2565 57.9978C31.6952 58.2607 30.547 58.7865 29.705 59.1809C28.8629 59.5752 27.1024 60.4165 25.8011 61.0475C24.4743 61.6784 23.3771 62.2042 23.3261 62.2042C22.9433 62.2042 10.5683 68.4875 6.99617 70.4855C3.85776 72.247 2.09719 74.1661 0.897963 77.1369C-2.0108 84.2877 2.50544 92.7268 9.29256 92.8057L11.0786 92.8319L11.1552 91.3597L11.2317 89.8875L10.2111 89.7297C5.66936 89.0988 3.21987 83.8408 5.41421 79.3715C6.20519 77.8204 7.35338 76.69 9.06292 75.9013C9.75184 75.5858 10.6704 75.1651 11.0786 74.9548C11.5124 74.7445 12.7116 74.2187 13.7578 73.7718C14.8039 73.3249 16.3093 72.6676 17.1003 72.2995C17.8913 71.9578 18.6312 71.6686 18.7588 71.6686C18.8864 71.6423 19.4477 71.432 20.0091 71.1428C20.5704 70.8536 21.1318 70.6433 21.2593 70.617C21.3869 70.617 22.1779 70.3015 23.0454 69.9335C26.0052 68.6453 26.8983 68.2509 29.3222 67.3308C30.649 66.805 32.1034 66.2266 32.5117 66.0426C32.9454 65.8322 33.7364 65.543 34.2977 65.359C34.8591 65.175 35.4459 64.9384 35.5735 64.8332C35.7266 64.7281 36.288 64.4915 36.8493 64.3074C37.4106 64.1234 37.9975 63.8868 38.1251 63.7816C38.2782 63.6765 39.0181 63.3873 39.7836 63.1244C40.549 62.8615 41.3145 62.5723 41.4421 62.4671C41.5952 62.362 42.1565 62.1254 42.7179 61.9413C43.2792 61.7573 44.0957 61.4681 44.5039 61.2578C44.9377 61.0738 46.3666 60.4954 47.6934 59.9696C49.0202 59.4438 50.8573 58.7077 51.7759 58.3659C52.6944 57.9978 53.664 57.6035 53.9447 57.4721C54.2253 57.3406 55.5522 56.8148 56.879 56.289C61.038 54.659 62.5944 54.0281 63.3854 53.66C63.8192 53.476 64.4315 53.2394 64.7888 53.1342C65.146 53.0291 65.7839 52.7925 66.1921 52.6084C66.6259 52.3981 68.1568 51.7671 69.6367 51.1625C71.1166 50.5841 72.5455 49.9794 72.8261 49.848C73.1068 49.7165 74.4336 49.1907 75.7604 48.6649C77.0872 48.1391 78.5416 47.5608 78.9499 47.3767C79.3836 47.1664 79.996 46.9298 80.3532 46.8246C80.7104 46.7195 81.3483 46.4829 81.7566 46.2989C82.1903 46.0885 84.1805 45.2735 86.2218 44.4586C88.263 43.6436 90.9166 42.5657 92.1159 42.0662C93.3406 41.5667 94.4123 41.1723 94.5143 41.1723C94.6929 41.1723 100.204 43.3544 101.148 43.8013C101.429 43.9328 102.756 44.4586 104.083 44.9844C105.409 45.5102 106.864 46.0885 107.272 46.2726C107.706 46.4829 108.318 46.7195 108.675 46.8246C109.033 46.9298 109.671 47.1664 110.079 47.3767C110.513 47.5608 111.941 48.1391 113.268 48.6649C114.595 49.1907 116.049 49.7691 116.458 49.9531C116.891 50.1372 117.631 50.4527 118.116 50.6367C118.601 50.8207 119.366 51.1099 119.775 51.2939C120.208 51.478 121.637 52.0826 122.964 52.6084C124.291 53.1342 125.745 53.7389 126.205 53.9492C126.638 54.1595 127.123 54.3173 127.276 54.3173C127.429 54.3173 128.042 54.5539 128.629 54.8431C129.241 55.1323 130.823 55.7895 132.15 56.289C133.476 56.8148 134.931 57.3932 135.339 57.5772C135.773 57.7875 136.385 58.0241 136.742 58.1293C137.1 58.2345 137.738 58.4711 138.146 58.6814C138.58 58.8654 140.008 59.4438 141.335 59.9696C142.662 60.4954 144.116 61.0738 144.525 61.2578C144.958 61.4681 145.749 61.7573 146.311 61.9413C146.872 62.1254 147.459 62.362 147.587 62.4671C147.74 62.5723 148.48 62.8615 149.245 63.1244C150.011 63.3873 150.776 63.6765 150.904 63.7816C151.057 63.8868 151.618 64.1234 152.179 64.3074C152.741 64.4915 153.328 64.7281 153.455 64.8332C153.608 64.9384 154.17 65.175 154.731 65.359C155.292 65.543 156.109 65.8322 156.517 66.0426C156.951 66.2266 158.38 66.805 159.706 67.3308C162.13 68.2509 163.023 68.6453 165.983 69.9335C166.851 70.3015 167.642 70.617 167.769 70.617C167.897 70.6433 168.458 70.8536 169.02 71.1428C169.581 71.432 170.142 71.6423 170.244 71.6686C170.372 71.6686 171.29 72.0366 172.286 72.4836C173.306 72.9042 174.812 73.5878 175.654 73.9558C178.052 75.0074 179.404 75.6121 180.374 76.0853C184.227 78.0045 185.63 83.2624 183.283 86.9167C182.415 88.2575 180.961 89.2302 179.175 89.6246L177.72 89.9663L177.797 91.2808C177.822 91.9907 177.924 92.6742 178.001 92.8057C178.307 93.3052 181.497 92.7794 183.232 91.9381C190.478 88.389 191.014 77.1369 184.176 71.9052C182.058 70.3015 174.123 66.174 162.386 60.6268C161.416 60.1799 160.038 59.5227 159.324 59.1809C157.793 58.4711 156.798 58.0241 152.434 56.0524C150.623 55.2111 148.658 54.3173 148.097 54.0544C147.536 53.7915 146.209 53.2131 145.163 52.7399C144.116 52.2929 142.917 51.7409 142.483 51.5568C140.366 50.5578 138.809 49.848 138.682 49.848C138.58 49.848 138.044 49.6114 137.431 49.3485C136.845 49.0593 135.492 48.4546 134.446 48.0077C133.4 47.5608 132.073 46.9561 131.486 46.6932C130.899 46.404 130.364 46.1674 130.262 46.1674C130.032 46.1674 126.945 44.8266 125.363 44.0642C124.776 43.775 124.24 43.5384 124.138 43.5384C124.036 43.5384 123.321 43.2492 122.556 42.8812C121.79 42.5131 121.076 42.2239 120.974 42.2239C120.872 42.1976 120.336 41.9873 119.775 41.6981C119.213 41.4089 118.677 41.1986 118.55 41.1723C118.448 41.1723 117.887 40.9357 117.274 40.6728C116.687 40.3836 115.641 39.9104 114.927 39.6475C111.533 38.2804 108.191 36.8871 107.247 36.4139C106.685 36.151 106.124 35.9143 106.022 35.9143C105.92 35.9143 105.46 35.7566 105.027 35.5463C104.567 35.336 103.062 34.705 101.659 34.1266L99.1071 33.1276L99.0306 31.261L98.954 29.3682L101.072 28.264C104.644 26.3711 107.119 23.3478 108.497 19.2203C109.288 16.9331 109.262 12.7793 108.446 10.3343C107.017 5.99646 103.7 2.42104 99.5919 0.791061C98.163 0.238976 97.2955 0.107521 95.0246 0.028656C93.4937 -0.0239258 91.9883 0.00236511 91.7076 0.0549469Z" stroke="url(#paint3_linear_219:26)" stroke-width="2" mask="url(#path-4-inside-1_219:26)"/>
<defs>
<linearGradient id="paint0_linear_219:26" x1="94" y1="109" x2="94" y2="59" gradientUnits="userSpaceOnUse">
<stop stop-color="#B2FEFA"/>
<stop offset="1" stop-color="#0ED2F7"/>
</linearGradient>
<linearGradient id="paint1_linear_219:26" x1="38" y1="103" x2="38" y2="73" gradientUnits="userSpaceOnUse">
<stop stop-color="#B2FEFA"/>
<stop offset="1" stop-color="#0ED2F7"/>
</linearGradient>
<linearGradient id="paint2_linear_219:26" x1="153" y1="103" x2="153" y2="73" gradientUnits="userSpaceOnUse">
<stop stop-color="#B2FEFA"/>
<stop offset="1" stop-color="#0ED2F7"/>
</linearGradient>
<linearGradient id="paint3_linear_219:26" x1="94.5" y1="93" x2="94.5" y2="0" gradientUnits="userSpaceOnUse">
<stop stop-color="#B2FEFA"/>
<stop offset="1" stop-color="#0ED2F7"/>
</linearGradient>
</defs>
</svg>
